<svg width="75" height="73" viewBox="0 0 75 73" fill="none" xmlns="http://www.w3.org/2000/svg">
<g filter="url(#filter0_d_60_1404)">
<path d="M28.124 14.793H21.874C20.2164 14.793 18.6267 15.4163 17.4546 16.5259C16.2825 17.6355 15.624 19.1404 15.624 20.7096V56.2096C15.624 57.7788 16.2825 59.2838 17.4546 60.3933C18.6267 61.5029 20.2164 62.1263 21.874 62.1263H53.124C54.7816 62.1263 56.3713 61.5029 57.5434 60.3933C58.7155 59.2838 59.374 57.7788 59.374 56.2096V20.7096C59.374 19.1404 58.7155 17.6355 57.5434 16.5259C56.3713 15.4163 54.7816 14.793 53.124 14.793H46.874" stroke="#F2F2E6" stroke-width="4.3" stroke-linecap="round" stroke-linejoin="round" shape-rendering="crispEdges"/>
</g>
<path d="M40.625 8.875H34.375C30.9232 8.875 28.125 11.524 28.125 14.7917C28.125 18.0594 30.9232 20.7083 34.375 20.7083H40.625C44.0768 20.7083 46.875 18.0594 46.875 14.7917C46.875 11.524 44.0768 8.875 40.625 8.875Z" stroke="#F2F2E6" stroke-width="3.5" stroke-linecap="round" stroke-linejoin="round"/>
<defs>
<filter id="filter0_d_60_1404" x="9.47363" y="12.6445" width="56.0508" height="59.6328" filterUnits="userSpaceOnUse" color-interpolation-filters="sRGB">
<feFlood flood-opacity="0" result="BackgroundImageFix"/>
<feColorMatrix in="SourceAlpha" type="matrix" values="0 0 0 0 0 0 0 0 0 0 0 0 0 0 0 0 0 0 127 0" result="hardAlpha"/>
<feOffset dy="4"/>
<feGaussianBlur stdDeviation="2"/>
<feComposite in2="hardAlpha" operator="out"/>
<feColorMatrix type="matrix" values="0 0 0 0 0 0 0 0 0 0 0 0 0 0 0 0 0 0 0.25 0"/>
<feBlend mode="normal" in2="BackgroundImageFix" result="effect1_dropShadow_60_1404"/>
<feBlend mode="normal" in="SourceGraphic" in2="effect1_dropShadow_60_1404" result="shape"/>
</filter>
</defs>
</svg>
