<svg width="65" height="53" viewBox="0 0 65 53" fill="none" xmlns="http://www.w3.org/2000/svg">
<g filter="url(#filter0_d_34_3502)">
<path d="M4.92583 9.33333C4.92583 8.04533 6.19548 7 7.69395 7H57.9665C59.4956 7 60.7346 8.03833 60.7346 9.33333V42C60.7346 43.288 59.465 44.3333 57.9665 44.3333H7.69395C7.32876 44.3327 6.9673 44.2718 6.63033 44.1541C6.29336 44.0364 5.98751 43.8642 5.73032 43.6474C5.47313 43.4306 5.26967 43.1735 5.13161 42.8908C4.99356 42.6081 4.92363 42.3054 4.92583 42V9.33333ZM38.4111 37.3333C42.1114 37.3333 45.6602 36.1042 48.2768 33.9162C50.8933 31.7283 52.3633 28.7609 52.3633 25.6667C52.3633 22.5725 50.8933 19.605 48.2768 17.4171C45.6602 15.2292 42.1114 14 38.4111 14C34.7107 14 31.1619 15.2292 28.5454 17.4171C25.9289 19.605 24.4589 22.5725 24.4589 25.6667C24.4589 28.7609 25.9289 31.7283 28.5454 33.9162C31.1619 36.1042 34.7107 37.3333 38.4111 37.3333ZM10.5067 11.6667V16.3333H18.878V11.6667H10.5067ZM10.5067 0H27.2493V4.66667H10.5067V0Z" fill="#F2F2E6"/>
</g>
<defs>
<filter id="filter0_d_34_3502" x="0.925781" y="0" width="63.8086" height="52.332" filterUnits="userSpaceOnUse" color-interpolation-filters="sRGB">
<feFlood flood-opacity="0" result="BackgroundImageFix"/>
<feColorMatrix in="SourceAlpha" type="matrix" values="0 0 0 0 0 0 0 0 0 0 0 0 0 0 0 0 0 0 127 0" result="hardAlpha"/>
<feOffset dy="4"/>
<feGaussianBlur stdDeviation="2"/>
<feComposite in2="hardAlpha" operator="out"/>
<feColorMatrix type="matrix" values="0 0 0 0 0 0 0 0 0 0 0 0 0 0 0 0 0 0 0.25 0"/>
<feBlend mode="normal" in2="BackgroundImageFix" result="effect1_dropShadow_34_3502"/>
<feBlend mode="normal" in="SourceGraphic" in2="effect1_dropShadow_34_3502" result="shape"/>
</filter>
</defs>
</svg>
