<svg width="43" height="43" viewBox="0 0 43 43" fill="none" xmlns="http://www.w3.org/2000/svg">
<g filter="url(#filter0_d_597_4887)">
<g clip-path="url(#clip0_597_4887)">
<rect x="4" width="35" height="35" rx="4" fill="#044B55"/>
<g filter="url(#filter1_d_597_4887)">
<path fill-rule="evenodd" clip-rule="evenodd" d="M16.4181 12.6881C15.9694 12.6881 15.606 12.2849 15.6756 11.8085C16.11 8.91441 18.1575 6.80469 21.7106 6.80469C25.2653 6.80469 27.662 9.11858 27.662 12.2747C27.662 14.5613 26.6114 16.1674 24.834 17.3329C23.0962 18.4541 22.6001 19.235 22.6001 20.7527V20.8037C22.6001 21.0293 22.5169 21.2457 22.3687 21.4052C22.2206 21.5648 22.0197 21.6544 21.8102 21.6544H20.5937C20.3855 21.6544 20.1858 21.566 20.0379 21.4083C19.89 21.2506 19.8058 21.0364 19.8037 20.8122L19.799 20.4719C19.7311 18.3945 20.5526 17.0675 22.3979 15.8578C24.0251 14.7825 24.6049 13.9267 24.6049 12.4074C24.6049 10.7417 23.4074 9.5184 21.5621 9.5184C19.968 9.5184 18.8606 10.4184 18.5003 11.9038C18.3961 12.3359 18.0611 12.6881 17.6472 12.6881H16.4181ZM21.1908 27.2214C22.1735 27.2214 22.9208 26.4149 22.9208 25.3668C22.9208 24.3154 22.1735 23.5089 21.1908 23.5089C20.2335 23.5089 19.4735 24.3154 19.4735 25.3651C19.4735 26.4149 20.2335 27.2214 21.1908 27.2214Z" fill="#F2F2E6"/>
</g>
<g filter="url(#filter2_d_597_4887)">
<path fill-rule="evenodd" clip-rule="evenodd" d="M16.0596 11.8675C16.0246 12.1101 16.2072 12.3014 16.4174 12.3014H17.6465C17.8213 12.3014 18.0437 12.1376 18.1216 11.8147C18.3193 10.9993 18.7285 10.3225 19.3271 9.8508C19.926 9.37893 20.6894 9.13168 21.5614 9.13168C22.5718 9.13168 23.4339 9.46808 24.0455 10.0613C24.6575 10.6547 24.9931 11.4807 24.9931 12.4095C24.9931 13.2236 24.8364 13.8961 24.4374 14.5126C24.0458 15.1177 23.4415 15.636 22.6116 16.1844L22.6104 16.1852C21.7185 16.7699 21.1043 17.3634 20.7173 18.0357C20.3328 18.7035 20.1549 19.4797 20.187 20.4614L20.1872 20.4687L20.1919 20.8108C20.1931 20.9413 20.2423 21.0607 20.3208 21.1444C20.3984 21.2271 20.4969 21.2677 20.593 21.2677H21.8095C21.9061 21.2677 22.0052 21.2266 22.083 21.1428C22.1618 21.058 22.2105 20.9373 22.2105 20.8059V20.7548C22.2105 19.9504 22.3427 19.2935 22.7386 18.6844C23.1254 18.0892 23.7401 17.5777 24.6212 17.0091C26.3044 15.905 27.2724 14.4137 27.2724 12.2768C27.2724 10.8015 26.7143 9.53871 25.7534 8.64274C24.791 7.7454 23.4021 7.19575 21.7099 7.19575C20.013 7.19575 18.7087 7.6979 17.7798 8.51541C16.8494 9.33427 16.2656 10.4961 16.0596 11.8675ZM17.266 7.93155C18.3577 6.97068 19.8537 6.41797 21.7099 6.41797C23.5725 6.41797 25.1592 7.02526 26.2838 8.07388C27.4099 9.12388 28.0502 10.5961 28.0502 12.2768C28.0502 14.7128 26.9173 16.4335 25.0466 17.6603L25.0441 17.6618C24.1881 18.2141 23.6862 18.6535 23.3907 19.1082C23.1041 19.5493 22.9883 20.0416 22.9883 20.7548V20.8059C22.9883 21.1257 22.8706 21.4377 22.653 21.672C22.4345 21.9073 22.1318 22.0455 21.8095 22.0455H20.593C20.2728 22.0455 19.9717 21.9091 19.7535 21.6765C19.5364 21.445 19.4173 21.1364 19.4142 20.8189C19.4142 20.8186 19.4142 20.8183 19.4142 20.818L19.4095 20.4831C19.3742 19.389 19.5731 18.4642 20.0432 17.6476C20.5112 16.8347 21.2302 16.16 22.1833 15.5351C22.9803 15.0084 23.4794 14.5613 23.7844 14.09C24.0822 13.6299 24.2153 13.1148 24.2153 12.4095C24.2153 11.6727 23.9522 11.0542 23.5041 10.6196C23.0556 10.1847 22.3963 9.90946 21.5614 9.90946C20.8394 9.90946 20.252 10.1122 19.8085 10.4617C19.3648 10.8114 19.0401 11.3276 18.8776 11.9976C18.7468 12.5388 18.2994 13.0791 17.6465 13.0791H16.4174C15.7304 13.0791 15.1865 12.4644 15.29 11.7545L15.2903 11.7529C15.5188 10.2306 16.176 8.89088 17.266 7.93155ZM19.084 25.3673C19.084 24.1297 19.992 23.1222 21.1902 23.1222C22.4138 23.1222 23.309 24.1299 23.309 25.369C23.309 26.6052 22.4133 27.6124 21.1902 27.6124C19.992 27.6124 19.084 26.6049 19.084 25.3673ZM21.1902 23.9C20.4735 23.9 19.8617 24.5054 19.8617 25.3673C19.8617 26.2292 20.4735 26.8346 21.1902 26.8346C21.9323 26.8346 22.5312 26.229 22.5312 25.369C22.5312 24.5052 21.9319 23.9 21.1902 23.9Z" fill="#F2F2E6"/>
</g>
</g>
<rect x="5.5" y="1.5" width="32" height="32" rx="2.5" stroke="#F2F2E6" stroke-width="3"/>
</g>
<defs>
<filter id="filter0_d_597_4887" x="0" y="0" width="43" height="43" filterUnits="userSpaceOnUse" color-interpolation-filters="sRGB">
<feFlood flood-opacity="0" result="BackgroundImageFix"/>
<feColorMatrix in="SourceAlpha" type="matrix" values="0 0 0 0 0 0 0 0 0 0 0 0 0 0 0 0 0 0 127 0" result="hardAlpha"/>
<feOffset dy="4"/>
<feGaussianBlur stdDeviation="2"/>
<feComposite in2="hardAlpha" operator="out"/>
<feColorMatrix type="matrix" values="0 0 0 0 0 0 0 0 0 0 0 0 0 0 0 0 0 0 0.25 0"/>
<feBlend mode="normal" in2="BackgroundImageFix" result="effect1_dropShadow_597_4887"/>
<feBlend mode="normal" in="SourceGraphic" in2="effect1_dropShadow_597_4887" result="shape"/>
</filter>
<filter id="filter1_d_597_4887" x="11.667" y="6.80469" width="19.9951" height="28.418" filterUnits="userSpaceOnUse" color-interpolation-filters="sRGB">
<feFlood flood-opacity="0" result="BackgroundImageFix"/>
<feColorMatrix in="SourceAlpha" type="matrix" values="0 0 0 0 0 0 0 0 0 0 0 0 0 0 0 0 0 0 127 0" result="hardAlpha"/>
<feOffset dy="4"/>
<feGaussianBlur stdDeviation="2"/>
<feComposite in2="hardAlpha" operator="out"/>
<feColorMatrix type="matrix" values="0 0 0 0 0 0 0 0 0 0 0 0 0 0 0 0 0 0 0.25 0"/>
<feBlend mode="normal" in2="BackgroundImageFix" result="effect1_dropShadow_597_4887"/>
<feBlend mode="normal" in="SourceGraphic" in2="effect1_dropShadow_597_4887" result="shape"/>
</filter>
<filter id="filter2_d_597_4887" x="11.2773" y="6.41797" width="20.7725" height="29.1953" filterUnits="userSpaceOnUse" color-interpolation-filters="sRGB">
<feFlood flood-opacity="0" result="BackgroundImageFix"/>
<feColorMatrix in="SourceAlpha" type="matrix" values="0 0 0 0 0 0 0 0 0 0 0 0 0 0 0 0 0 0 127 0" result="hardAlpha"/>
<feOffset dy="4"/>
<feGaussianBlur stdDeviation="2"/>
<feComposite in2="hardAlpha" operator="out"/>
<feColorMatrix type="matrix" values="0 0 0 0 0 0 0 0 0 0 0 0 0 0 0 0 0 0 0.25 0"/>
<feBlend mode="normal" in2="BackgroundImageFix" result="effect1_dropShadow_597_4887"/>
<feBlend mode="normal" in="SourceGraphic" in2="effect1_dropShadow_597_4887" result="shape"/>
</filter>
<clipPath id="clip0_597_4887">
<rect x="4" width="35" height="35" rx="4" fill="white"/>
</clipPath>
</defs>
</svg>
