<svg width="91" height="75" viewBox="0 0 91 75" fill="none" xmlns="http://www.w3.org/2000/svg">
<g filter="url(#filter0_d_48_3142)">
<path d="M4.49934 14C4.49934 12.068 6.37622 10.5 8.59134 10.5H82.9073C85.1678 10.5 86.9993 12.0575 86.9993 14V63C86.9993 64.932 85.1224 66.5 82.9073 66.5H8.59134C8.05149 66.4991 7.51717 66.4077 7.01904 66.2312C6.52091 66.0546 6.06878 65.7963 5.68858 65.4711C5.30839 65.1459 5.00762 64.7602 4.80354 64.3362C4.59946 63.9121 4.49608 63.458 4.49934 63V14ZM53.9993 56C59.4694 56 64.7154 54.1563 68.5834 50.8744C72.4513 47.5925 74.6243 43.1413 74.6243 38.5C74.6243 33.8587 72.4513 29.4075 68.5834 26.1256C64.7154 22.8437 59.4694 21 53.9993 21C48.5292 21 43.2832 22.8437 39.4152 26.1256C35.5473 29.4075 33.3743 33.8587 33.3743 38.5C33.3743 43.1413 35.5473 47.5925 39.4152 50.8744C43.2832 54.1563 48.5292 56 53.9993 56ZM12.7493 17.5V24.5H25.1243V17.5H12.7493ZM12.7493 0H37.4993V7H12.7493V0Z" fill="#F2F2E6"/>
</g>
<defs>
<filter id="filter0_d_48_3142" x="0.499268" y="0" width="90.5" height="74.5" filterUnits="userSpaceOnUse" color-interpolation-filters="sRGB">
<feFlood flood-opacity="0" result="BackgroundImageFix"/>
<feColorMatrix in="SourceAlpha" type="matrix" values="0 0 0 0 0 0 0 0 0 0 0 0 0 0 0 0 0 0 127 0" result="hardAlpha"/>
<feOffset dy="4"/>
<feGaussianBlur stdDeviation="2"/>
<feComposite in2="hardAlpha" operator="out"/>
<feColorMatrix type="matrix" values="0 0 0 0 0 0 0 0 0 0 0 0 0 0 0 0 0 0 0.25 0"/>
<feBlend mode="normal" in2="BackgroundImageFix" result="effect1_dropShadow_48_3142"/>
<feBlend mode="normal" in="SourceGraphic" in2="effect1_dropShadow_48_3142" result="shape"/>
</filter>
</defs>
</svg>
