<svg width="34" height="50" viewBox="0 0 34 50" fill="none" xmlns="http://www.w3.org/2000/svg">
<path d="M15.1367 38.75C15.459 39.248 16.0254 39.5801 16.6699 39.5801C17.3145 39.5801 17.8809 39.248 18.2129 38.75L28.9746 22.1289C30.4199 19.8926 31.2598 17.4316 31.2598 14.5801C31.25 6.33789 24.7754 0 16.6699 0C8.56445 0 2.08984 6.33789 2.08984 14.5801C2.08984 17.4316 2.92969 19.8926 4.375 22.1289L15.1367 38.75ZM16.6699 6.25C21.2695 6.25 25 9.98047 25 14.5801C25 19.1797 21.2695 22.9102 16.6699 22.9102C12.0703 22.9102 8.33984 19.1797 8.33984 14.5801C8.33984 9.98047 12.0703 6.25 16.6699 6.25ZM27.3535 31.5918L16.6699 45.8301L5.98633 31.5918C2.33398 33.5059 0 36.3672 0 39.5801C0 45.332 7.46094 50 16.6699 50C25.8789 50 33.3398 45.332 33.3398 39.5801C33.3398 36.3672 31.0059 33.5059 27.3535 31.5918Z" fill="#F2F2E6"/>
</svg>
